<svg width="51" height="20" viewBox="0 0 51 20" fill="none" xmlns="http://www.w3.org/2000/svg">
<g id="IBM logo | IBMer Experience Library" clip-path="url(#clip0_8582_532)">
<rect width="50.625" height="20" transform="translate(0.375)" fill="white" fill-opacity="0.01" style="mix-blend-mode:multiply"/>
<path id="Vector" fill-rule="evenodd" clip-rule="evenodd" d="M0.375 20H10.1806V18.7262H0.375V20ZM0.375 17.3256H10.1806V16.0519H0.375V17.3256ZM3.17687 14.6512H7.37937V13.3781H3.17687V14.6512ZM3.17687 11.9775H7.37937V10.7037H3.17687V11.9775ZM3.17687 9.30313H7.37937V8.03H3.17687V9.30313ZM3.17625 6.62875H7.37875V5.355H3.17625V6.62875ZM0.375 3.95438H10.1806V2.68125H0.375V3.95438ZM0.375 1.28062H10.1806V0.006875H0.375V1.28062ZM11.5813 18.7269V20H21.8962C23.1652 20.0017 24.3931 19.5502 25.3587 18.7269H11.5813ZM11.5813 16.0519V17.3256H26.5275C26.759 16.9258 26.9376 16.4977 27.0588 16.0519H11.5813ZM14.3825 14.6512H18.585V13.3781H14.3825V14.6512ZM25.4525 10.7037H14.3825V11.9775H26.4813C26.2054 11.503 25.8587 11.0735 25.4531 10.7037M14.3831 8.03V9.3025H25.4994C25.9047 8.93296 26.2512 8.50363 26.5269 8.02938H14.3831V8.03ZM27.0581 3.95438C26.9375 3.50859 26.7589 3.08056 26.5269 2.68125H11.5813V3.95438H27.0581ZM25.3587 1.28062C24.3931 0.457282 23.1652 0.00580046 21.8962 0.0075H11.5813V1.28062H25.3587ZM14.3825 6.62875H18.585V5.355H14.3825V6.62875ZM22.5331 6.62875H27.0894C27.1917 6.21188 27.2437 5.78425 27.2444 5.355H22.5331V6.62875ZM22.5331 13.3781V14.6512H27.2444C27.2444 14.2119 27.1881 13.7863 27.0894 13.3781H22.5331ZM36.2856 0H28.3906V1.27375H36.7281L36.2856 0ZM28.3913 20H35.3975V18.7262H28.3913V20ZM28.3913 17.325H35.3975V16.0513H28.3913V17.325ZM31.1931 14.6494H35.3975V13.3756H31.1931V14.6494ZM31.1931 11.9744H35.3975V10.7006H31.1931V11.9744ZM43.805 20H50.8112V18.7262H43.805V20ZM43.805 17.325H50.8112V16.0513H43.805V17.325ZM43.805 14.6494H48.0087V13.3756H43.805V14.6494ZM43.8044 11.9744H48.0081V10.7006H43.8044V11.9744ZM43.805 9.29937H48.0087V8.025H40.1287L39.6869 9.29875H43.3763L43.805 8.08625V9.29937ZM39.0725 8.025H31.1938V9.29937H35.3975V8.08687L35.8262 9.29937H39.5156L39.0725 8.025ZM48.0081 5.35H41.0569L40.615 6.62375H48.0087L48.0081 5.35ZM42.9125 0L42.4712 1.27375H50.8112V0H42.9125ZM39.5981 20L40.0481 18.7262H39.1531L39.5981 20ZM38.6588 17.325H40.5431L40.9931 16.0513H38.2088L38.6588 17.325ZM37.7144 14.65H41.4875L41.9375 13.3756H37.265L37.7144 14.65ZM36.77 11.9744H42.4325L42.8819 10.7006H36.3194L36.77 11.9744ZM31.1931 6.62375H38.5869L38.145 5.35H31.1931V6.62375ZM41.5425 3.94875H50.8112V2.675H41.985L41.5425 3.94875ZM37.2169 2.675H28.3913V3.94875H37.6587L37.2169 2.675Z" fill="white"/>
</g>
<defs>
<clipPath id="clip0_8582_532">
<rect width="50.625" height="20" fill="white" transform="translate(0.375)"/>
</clipPath>
</defs>
</svg>
